<?xml version="1.0" encoding="UTF-8" standalone="no"?>
<!DOCTYPE svg PUBLIC "-//W3C//DTD SVG 1.1//EN" "http://www.w3.org/Graphics/SVG/1.1/DTD/svg11.dtd">
<svg width="100%" height="100%" viewBox="0 0 18 14" version="1.1" xmlns="http://www.w3.org/2000/svg" xmlns:xlink="http://www.w3.org/1999/xlink" xml:space="preserve" xmlns:serif="http://www.serif.com/" style="fill-rule:evenodd;clip-rule:evenodd;stroke-linejoin:round;stroke-miterlimit:2;">
    <g id="Folder" transform="matrix(0.146472,0,0,0.142653,0,0)">
        <path d="M6.02,0L39.68,0L50.8,12.3L117.26,12.3C120.36,12.3 122.89,14.85 122.89,17.93L122.89,92.5C122.89,95.6 120.36,98.14 117.26,98.14L6.67,98.14C3.56,98.15 0,95.6 0,92.5L0,6.02C0,2.72 2.72,0 6.02,0ZM111.83,29.42C111.83,26.44 109.37,25 106.4,25L17.46,25C14.5,25 11.05,27.44 11.05,30.42L11.05,81.22C11.05,84.22 14.5,86.65 17.46,86.65L106.41,86.65C109.38,86.65 111.84,84.21 111.84,81.22L111.84,30.42L111.83,29.42Z" style="fill:rgb(51,51,51);"/>
    </g>
</svg>
