<?xml version="1.0" encoding="UTF-8" standalone="no"?>
<!DOCTYPE svg PUBLIC "-//W3C//DTD SVG 1.1//EN" "http://www.w3.org/Graphics/SVG/1.1/DTD/svg11.dtd">
<svg width="100%" height="100%" viewBox="0 0 350 225" version="1.1" xmlns="http://www.w3.org/2000/svg" xmlns:xlink="http://www.w3.org/1999/xlink" xml:space="preserve" xmlns:serif="http://www.serif.com/" style="fill-rule:evenodd;clip-rule:evenodd;stroke-linejoin:round;stroke-miterlimit:2;">
    <rect id="Background" x="0" y="0" width="350" height="225" style="fill:rgb(26,26,26);"/>
    <g id="Footer">
        <g transform="matrix(0.576869,0,0,0.576869,167.726,170.335)">
            <g transform="matrix(18.0572,0,0,18.0572,92.9662,54.7918)">
                <path d="M0.477,-0.536L0.582,-0.536C0.579,-0.653 0.476,-0.737 0.328,-0.737C0.183,-0.737 0.071,-0.654 0.071,-0.528C0.071,-0.427 0.143,-0.368 0.26,-0.336L0.346,-0.313C0.424,-0.292 0.484,-0.267 0.484,-0.202C0.484,-0.131 0.416,-0.084 0.322,-0.084C0.238,-0.084 0.168,-0.122 0.161,-0.201L0.051,-0.201C0.058,-0.069 0.16,0.012 0.323,0.012C0.494,0.012 0.592,-0.078 0.592,-0.201C0.592,-0.332 0.475,-0.383 0.383,-0.406L0.312,-0.424C0.255,-0.439 0.18,-0.465 0.18,-0.535C0.18,-0.597 0.237,-0.642 0.326,-0.642C0.409,-0.642 0.469,-0.603 0.477,-0.536Z" style="fill:rgb(51,51,51);fill-rule:nonzero;"/>
            </g>
            <g transform="matrix(18.0572,0,0,18.0572,104.585,54.7918)">
                <path d="M0.08,-0L0.19,-0L0.19,-0.256L0.339,-0.256C0.507,-0.256 0.591,-0.358 0.591,-0.492C0.591,-0.626 0.508,-0.727 0.339,-0.727L0.08,-0.727L0.08,-0ZM0.19,-0.349L0.19,-0.633L0.327,-0.633C0.436,-0.633 0.48,-0.574 0.48,-0.492C0.48,-0.409 0.436,-0.349 0.329,-0.349L0.19,-0.349Z" style="fill:rgb(51,51,51);fill-rule:nonzero;"/>
            </g>
            <g transform="matrix(18.0572,0,0,18.0572,116.128,54.7918)">
                <rect x="0.08" y="-0.727" width="0.11" height="0.727" style="fill:rgb(51,51,51);fill-rule:nonzero;"/>
            </g>
            <g transform="matrix(18.0572,0,0,18.0572,120.995,54.7918)">
                <path d="M0.044,-0.633L0.271,-0.633L0.271,-0L0.38,-0L0.38,-0.633L0.607,-0.633L0.607,-0.727L0.044,-0.727L0.044,-0.633Z" style="fill:rgb(51,51,51);fill-rule:nonzero;"/>
            </g>
            <g transform="matrix(18.0572,0,0,18.0572,132.749,54.7918)">
                <path d="M0.08,-0L0.54,-0L0.54,-0.094L0.19,-0.094L0.19,-0.317L0.512,-0.317L0.512,-0.411L0.19,-0.411L0.19,-0.633L0.536,-0.633L0.536,-0.727L0.08,-0.727L0.08,-0Z" style="fill:rgb(51,51,51);fill-rule:nonzero;"/>
            </g>
            <g transform="matrix(18.0572,0,0,18.0572,148.42,54.7918)">
                <rect x="0.07" y="-0.409" width="0.322" height="0.092" style="fill:rgb(51,51,51);fill-rule:nonzero;"/>
            </g>
            <g transform="matrix(18.0572,0,0,18.0572,161.566,54.7918)">
                <path d="M0.141,-0L0.208,-0.192L0.492,-0.192L0.559,-0L0.675,-0L0.413,-0.727L0.287,-0.727L0.025,-0L0.141,-0ZM0.24,-0.285L0.347,-0.595L0.353,-0.595L0.46,-0.285L0.24,-0.285Z" style="fill:rgb(51,51,51);fill-rule:nonzero;"/>
            </g>
            <g transform="matrix(18.0572,0,0,18.0572,174.205,54.7918)">
                <path d="M0.548,-0.727L0.548,-0.258C0.548,-0.159 0.479,-0.088 0.369,-0.088C0.258,-0.088 0.19,-0.159 0.19,-0.258L0.19,-0.727L0.08,-0.727L0.08,-0.249C0.08,-0.096 0.194,0.012 0.369,0.012C0.543,0.012 0.658,-0.096 0.658,-0.249L0.658,-0.727L0.548,-0.727Z" style="fill:rgb(51,51,51);fill-rule:nonzero;"/>
            </g>
            <g transform="matrix(18.0572,0,0,18.0572,187.523,54.7918)">
                <path d="M0.315,-0C0.537,-0 0.665,-0.137 0.665,-0.365C0.665,-0.591 0.537,-0.727 0.323,-0.727L0.08,-0.727L0.08,-0L0.315,-0ZM0.19,-0.096L0.19,-0.631L0.316,-0.631C0.475,-0.631 0.557,-0.536 0.557,-0.365C0.557,-0.192 0.475,-0.096 0.309,-0.096L0.19,-0.096Z" style="fill:rgb(51,51,51);fill-rule:nonzero;"/>
            </g>
            <g transform="matrix(18.0572,0,0,18.0572,200.553,54.7918)">
                <rect x="0.08" y="-0.727" width="0.11" height="0.727" style="fill:rgb(51,51,51);fill-rule:nonzero;"/>
            </g>
            <g transform="matrix(18.0572,0,0,18.0572,205.42,54.7918)">
                <path d="M0.712,-0.364C0.712,-0.596 0.572,-0.737 0.384,-0.737C0.195,-0.737 0.056,-0.596 0.056,-0.364C0.056,-0.131 0.195,0.01 0.384,0.01C0.572,0.01 0.712,-0.131 0.712,-0.364ZM0.603,-0.364C0.603,-0.186 0.509,-0.09 0.384,-0.09C0.259,-0.09 0.165,-0.186 0.165,-0.364C0.165,-0.541 0.259,-0.637 0.384,-0.637C0.509,-0.637 0.603,-0.541 0.603,-0.364Z" style="fill:rgb(51,51,51);fill-rule:nonzero;"/>
            </g>
            <g transform="matrix(18.0572,0,0,18.0572,224.074,54.7918)">
                <path d="M0.044,-0.633L0.271,-0.633L0.271,-0L0.38,-0L0.38,-0.633L0.607,-0.633L0.607,-0.727L0.044,-0.727L0.044,-0.633Z" style="fill:rgb(51,51,51);fill-rule:nonzero;"/>
            </g>
            <g transform="matrix(18.0572,0,0,18.0572,235.276,54.7918)">
                <path d="M0.712,-0.364C0.712,-0.596 0.572,-0.737 0.384,-0.737C0.195,-0.737 0.056,-0.596 0.056,-0.364C0.056,-0.131 0.195,0.01 0.384,0.01C0.572,0.01 0.712,-0.131 0.712,-0.364ZM0.603,-0.364C0.603,-0.186 0.509,-0.09 0.384,-0.09C0.259,-0.09 0.165,-0.186 0.165,-0.364C0.165,-0.541 0.259,-0.637 0.384,-0.637C0.509,-0.637 0.603,-0.541 0.603,-0.364Z" style="fill:rgb(51,51,51);fill-rule:nonzero;"/>
            </g>
            <g transform="matrix(18.0572,0,0,18.0572,249.146,54.7918)">
                <path d="M0.712,-0.364C0.712,-0.596 0.572,-0.737 0.384,-0.737C0.195,-0.737 0.056,-0.596 0.056,-0.364C0.056,-0.131 0.195,0.01 0.384,0.01C0.572,0.01 0.712,-0.131 0.712,-0.364ZM0.603,-0.364C0.603,-0.186 0.509,-0.09 0.384,-0.09C0.259,-0.09 0.165,-0.186 0.165,-0.364C0.165,-0.541 0.259,-0.637 0.384,-0.637C0.509,-0.637 0.603,-0.541 0.603,-0.364Z" style="fill:rgb(51,51,51);fill-rule:nonzero;"/>
            </g>
            <g transform="matrix(18.0572,0,0,18.0572,263.016,54.7918)">
                <path d="M0.08,-0L0.519,-0L0.519,-0.094L0.19,-0.094L0.19,-0.727L0.08,-0.727L0.08,-0Z" style="fill:rgb(51,51,51);fill-rule:nonzero;"/>
            </g>
            <g transform="matrix(18.0572,0,0,18.0572,273.205,54.7918)">
                <path d="M0.477,-0.536L0.582,-0.536C0.579,-0.653 0.476,-0.737 0.328,-0.737C0.183,-0.737 0.071,-0.654 0.071,-0.528C0.071,-0.427 0.143,-0.368 0.26,-0.336L0.346,-0.313C0.424,-0.292 0.484,-0.267 0.484,-0.202C0.484,-0.131 0.416,-0.084 0.322,-0.084C0.238,-0.084 0.168,-0.122 0.161,-0.201L0.051,-0.201C0.058,-0.069 0.16,0.012 0.323,0.012C0.494,0.012 0.592,-0.078 0.592,-0.201C0.592,-0.332 0.475,-0.383 0.383,-0.406L0.312,-0.424C0.255,-0.439 0.18,-0.465 0.18,-0.535C0.18,-0.597 0.237,-0.642 0.326,-0.642C0.409,-0.642 0.469,-0.603 0.477,-0.536Z" style="fill:rgb(51,51,51);fill-rule:nonzero;"/>
            </g>
        </g>
        <g id="Divider" transform="matrix(0.998405,0,0,1,0.0287582,0)">
            <g id="Divider-Bottom" serif:id="Divider Bottom" transform="matrix(15.4217,0,0,1,-324.362,1.64883)">
                <rect x="22.202" y="169.198" width="20.326" height="1.486" style="fill:rgb(29,29,29);"/>
            </g>
            <g id="Divider-Top" serif:id="Divider Top" transform="matrix(15.4217,0,0,1,-324.362,0.162725)">
                <rect x="22.202" y="169.198" width="20.326" height="1.486" style="fill:rgb(20,20,20);"/>
            </g>
        </g>
    </g>
    <g id="Mid-Section" serif:id="Mid Section" transform="matrix(1,0,0,1,2.27374e-13,-6)">
        <g transform="matrix(4.17757,0,0,1.00266,-376.766,0.201107)">
            <path d="M169.421,116.29C169.421,114.198 169.013,112.5 168.511,112.5L95.406,112.5C94.904,112.5 94.497,114.198 94.497,116.29L94.497,146.609C94.497,148.701 94.904,150.399 95.406,150.399L168.511,150.399C169.013,150.399 169.421,148.701 169.421,146.609L169.421,116.29Z" style="fill:rgb(13,13,13);"/>
        </g>
        <g transform="matrix(0.255379,0,0,0.255379,1.24153,85.5178)">
            <g transform="matrix(48.9469,0,0,48.9469,116.532,76.6434)">
                <path d="M0.08,-0L0.19,-0L0.19,-0.317L0.499,-0.317L0.499,-0.411L0.19,-0.411L0.19,-0.633L0.531,-0.633L0.531,-0.727L0.08,-0.727L0.08,-0Z" style="fill:rgb(191,191,191);fill-rule:nonzero;"/>
            </g>
            <g transform="matrix(48.9469,0,0,48.9469,145.211,76.6434)">
                <rect x="0.08" y="-0.727" width="0.11" height="0.727" style="fill:rgb(191,191,191);fill-rule:nonzero;"/>
            </g>
            <g transform="matrix(48.9469,0,0,48.9469,158.404,76.6434)">
                <path d="M0.08,-0L0.519,-0L0.519,-0.094L0.19,-0.094L0.19,-0.727L0.08,-0.727L0.08,-0Z" style="fill:rgb(191,191,191);fill-rule:nonzero;"/>
            </g>
            <g transform="matrix(48.9469,0,0,48.9469,186.024,76.6434)">
                <path d="M0.08,-0L0.54,-0L0.54,-0.094L0.19,-0.094L0.19,-0.317L0.512,-0.317L0.512,-0.411L0.19,-0.411L0.19,-0.633L0.536,-0.633L0.536,-0.727L0.08,-0.727L0.08,-0Z" style="fill:rgb(191,191,191);fill-rule:nonzero;"/>
            </g>
        </g>
    </g>
    <g id="Header" transform="matrix(1,0,0,1,-0.5,0)">
        <g id="Header-Background" serif:id="Header Background" transform="matrix(1,0,0,1.00073,0.5,0)">
            <rect x="0" y="0" width="350" height="63.953" style="fill:rgb(13,13,13);"/>
        </g>
        <g transform="matrix(1,0,0,1,-22.9458,-15.1212)">
            <g transform="matrix(20.8333,0,0,20.8333,64.0079,54.7918)">
                <path d="M0.477,-0.536L0.582,-0.536C0.579,-0.653 0.476,-0.737 0.328,-0.737C0.183,-0.737 0.071,-0.654 0.071,-0.528C0.071,-0.427 0.143,-0.368 0.26,-0.336L0.346,-0.313C0.424,-0.292 0.484,-0.267 0.484,-0.202C0.484,-0.131 0.416,-0.084 0.322,-0.084C0.238,-0.084 0.168,-0.122 0.161,-0.201L0.051,-0.201C0.058,-0.069 0.16,0.012 0.323,0.012C0.494,0.012 0.592,-0.078 0.592,-0.201C0.592,-0.332 0.475,-0.383 0.383,-0.406L0.312,-0.424C0.255,-0.439 0.18,-0.465 0.18,-0.535C0.18,-0.597 0.237,-0.642 0.326,-0.642C0.409,-0.642 0.469,-0.603 0.477,-0.536Z" style="fill:rgb(216,219,227);fill-rule:nonzero;"/>
            </g>
            <g transform="matrix(20.8333,0,0,20.8333,76.7884,54.7918)">
                <path d="M0.08,-0L0.19,-0L0.19,-0.256L0.339,-0.256C0.507,-0.256 0.591,-0.358 0.591,-0.492C0.591,-0.626 0.508,-0.727 0.339,-0.727L0.08,-0.727L0.08,-0ZM0.19,-0.349L0.19,-0.633L0.327,-0.633C0.436,-0.633 0.48,-0.574 0.48,-0.492C0.48,-0.409 0.436,-0.349 0.329,-0.349L0.19,-0.349Z" style="fill:rgb(216,219,227);fill-rule:nonzero;"/>
            </g>
            <g transform="matrix(20.8333,0,0,20.8333,89.2719,54.7918)">
                <rect x="0.08" y="-0.727" width="0.11" height="0.727" style="fill:rgb(216,219,227);fill-rule:nonzero;"/>
            </g>
            <g transform="matrix(20.8333,0,0,20.8333,94.6788,54.7918)">
                <path d="M0.044,-0.633L0.271,-0.633L0.271,-0L0.38,-0L0.38,-0.633L0.607,-0.633L0.607,-0.727L0.044,-0.727L0.044,-0.633Z" style="fill:rgb(216,219,227);fill-rule:nonzero;"/>
            </g>
            <g transform="matrix(20.8333,0,0,20.8333,108.031,54.7918)">
                <path d="M0.08,-0L0.54,-0L0.54,-0.094L0.19,-0.094L0.19,-0.317L0.512,-0.317L0.512,-0.411L0.19,-0.411L0.19,-0.633L0.536,-0.633L0.536,-0.727L0.08,-0.727L0.08,-0Z" style="fill:rgb(216,219,227);fill-rule:nonzero;"/>
            </g>
            <g transform="matrix(20.8333,0,0,20.8333,126.113,54.7918)">
                <path d="M0.08,-0.727L0.08,-0L0.184,-0L0.184,-0.527L0.191,-0.527L0.406,-0.001L0.492,-0.001L0.707,-0.526L0.713,-0.526L0.713,-0L0.818,-0L0.818,-0.727L0.685,-0.727L0.453,-0.162L0.445,-0.162L0.213,-0.727L0.08,-0.727Z" style="fill:rgb(216,219,227);fill-rule:nonzero;"/>
            </g>
            <g transform="matrix(20.8333,0,0,20.8333,144.19,54.7918)">
                <rect x="0.08" y="-0.727" width="0.11" height="0.727" style="fill:rgb(216,219,227);fill-rule:nonzero;"/>
            </g>
            <g transform="matrix(20.8333,0,0,20.8333,149.18,54.7918)">
                <path d="M0.315,-0C0.537,-0 0.665,-0.137 0.665,-0.365C0.665,-0.591 0.537,-0.727 0.323,-0.727L0.08,-0.727L0.08,-0L0.315,-0ZM0.19,-0.096L0.19,-0.631L0.316,-0.631C0.475,-0.631 0.557,-0.536 0.557,-0.365C0.557,-0.192 0.475,-0.096 0.309,-0.096L0.19,-0.096Z" style="fill:rgb(216,219,227);fill-rule:nonzero;"/>
            </g>
            <g transform="matrix(20.8333,0,0,20.8333,163.38,54.7918)">
                <rect x="0.08" y="-0.727" width="0.11" height="0.727" style="fill:rgb(216,219,227);fill-rule:nonzero;"/>
            </g>
        </g>
        <g id="Logo" transform="matrix(0.0118481,0,0,0.0118481,25.3911,30.7841)">
            <g transform="matrix(1,0,0,1,-903.536,-1019.69)">
                <path d="M955,474.518C949.89,475.608 945.019,478.01 941,481.329C937.647,484.098 934.501,487.359 932.108,491C918.959,511.01 932.577,534.938 940.576,554C954.396,586.935 967.755,620.065 981.576,653C987.708,667.613 992.797,683.02 1000.31,697C1012.32,719.354 1028.98,738.506 1050,752.806C1067.62,764.792 1087.96,773.2 1109,776.714C1138.93,781.714 1170.73,779 1201,779L1561,779C1574.98,779 1592.69,781.884 1606,777.304C1626.17,770.364 1642.66,751.654 1644.83,730C1647.02,708.117 1639.39,686.196 1635,665C1626.29,622.904 1616.15,581.141 1607.6,539C1602.63,514.493 1596.27,491.507 1572,479.37C1554.93,470.835 1533.5,474 1515,474L972,474C966.46,474 960.446,473.356 955,474.518Z" style="fill:rgb(51,204,204);fill-rule:nonzero;"/>
            </g>
            <g transform="matrix(1,0,0,1,-903.536,-1019.69)">
                <path d="M352,811.464C346.883,812.387 342.234,814.44 338.004,817.44C334.967,819.593 332.32,822.064 330.043,825.015C311.773,848.696 331.419,878.805 340.989,902C352.822,930.679 364.571,959.393 376.576,988C383.434,1004.34 389.208,1021.49 397.862,1037C414.719,1067.22 441.53,1092.27 474,1104.94C509.094,1118.63 546.027,1116 583,1116L1579,1116C1591.31,1116 1602.7,1116.82 1614,1111.02C1637.2,1099.1 1646.05,1075.73 1644.96,1051C1644.48,1040.04 1640.77,1028.69 1638.42,1018C1634.03,997.994 1629.85,977.957 1625.24,958C1620.18,936.108 1615.56,914.017 1611,892C1608.13,878.107 1605.88,863.496 1601.48,850C1594.93,829.934 1576.76,814.682 1556,811.439C1547.58,810.123 1538.51,811 1530,811L372,811C365.461,811 358.456,810.301 352,811.464Z" style="fill:rgb(51,204,204);fill-rule:nonzero;"/>
            </g>
            <g transform="matrix(1,0,0,1,-903.536,-1019.69)">
                <path d="M955,1148.53C950.445,1149.56 945.749,1151.85 942,1154.61C938.824,1156.95 935.932,1159.88 933.529,1163C918.384,1182.68 931.887,1207.6 940.15,1227C954.287,1260.19 967.616,1293.73 981.576,1327C987.708,1341.61 992.797,1357.02 1000.31,1371C1012.15,1393.04 1028.42,1411.84 1049,1426.11C1066.5,1438.26 1086.96,1447.02 1108,1450.68C1138.17,1455.93 1170.47,1453 1201,1453L1562,1453C1577.09,1453 1594.67,1455.57 1609,1450.3C1628.27,1443.22 1644.04,1422.74 1644.96,1402C1645.91,1380.52 1639.32,1359.86 1635,1339C1626.49,1297.9 1616.94,1257.06 1608.21,1216C1602.82,1190.65 1597.59,1165.99 1572,1153.37C1554.83,1144.91 1533.55,1148 1515,1148L972,1148C966.484,1148 960.41,1147.3 955,1148.53Z" style="fill:rgb(51,204,204);fill-rule:nonzero;"/>
            </g>
            <g transform="matrix(1,0,0,1,-903.536,-1019.69)">
                <path d="M1269,1485.52C1246.72,1490.27 1235.93,1514.27 1242.04,1535C1245.26,1545.89 1250.7,1556.56 1255.15,1567C1261.93,1582.92 1268.39,1599 1274.99,1615C1288.27,1647.19 1299.7,1681.36 1316.31,1712C1322.6,1723.6 1330.81,1734.56 1340.01,1744C1361.25,1765.76 1389.93,1781.93 1420,1787.38C1453.02,1793.38 1488.52,1790 1522,1790L1575,1790C1583.93,1790 1594.3,1791.44 1603,1789.24C1624.7,1783.76 1642.59,1763.41 1644.83,1741C1646.94,1719.9 1639.91,1698.41 1635.42,1678C1627.3,1641 1619.09,1604.05 1611.21,1567C1606.51,1544.88 1604.52,1518.93 1587.96,1502.01C1565.8,1479.37 1532.81,1485 1504,1485L1295,1485C1286.65,1485 1277.19,1483.77 1269,1485.52Z" style="fill:rgb(51,204,204);fill-rule:nonzero;"/>
            </g>
        </g>
    </g>
</svg>
