<?xml version="1.0" encoding="utf-8"?>
<!-- Generator: Adobe Illustrator 27.0.0, SVG Export Plug-In . SVG Version: 6.00 Build 0)  -->
<svg version="1.1" id="Layer_1" xmlns="http://www.w3.org/2000/svg" xmlns:xlink="http://www.w3.org/1999/xlink" x="0px" y="0px"
	 viewBox="0 0 16 16" style="enable-background:new 0 0 16 16;" xml:space="preserve">
<style type="text/css">
	.st0{fill:#3A444E;}
</style>
<path class="st0" d="M1,3.5C1,2.7,1.7,2,2.5,2h2.8c1,0,1.8,0.6,2.3,1.2C8,3.6,8.5,4,9,4h4.5C14.3,4,15,4.7,15,5.5v7
	c0,0.8-0.7,1.5-1.5,1.5h-11C1.7,14,1,13.3,1,12.5V3.5z M2.5,3C2.2,3,2,3.2,2,3.5V6h12V5.5C14,5.2,13.8,5,13.5,5H9
	C8,5,7.3,4.4,6.8,3.8C6.4,3.3,5.8,3,5.3,3H2.5z M14,7H2v5.5C2,12.8,2.2,13,2.5,13h11c0.3,0,0.5-0.2,0.5-0.5V7z"/>
</svg>
