<?xml version="1.0" encoding="utf-8"?>
<!-- Generator: Adobe Illustrator 27.0.0, SVG Export Plug-In . SVG Version: 6.00 Build 0)  -->
<svg version="1.1" id="Layer_1" xmlns="http://www.w3.org/2000/svg" xmlns:xlink="http://www.w3.org/1999/xlink" x="0px" y="0px"
	 viewBox="0 0 16 16" style="enable-background:new 0 0 16 16;" xml:space="preserve">
<style type="text/css">
	.st0{fill-rule:evenodd;clip-rule:evenodd;fill:#DCDCDC;}
</style>
<path class="st0" d="M8.5,2C8.8,2,9,2.2,9,2.5v11C9,13.8,8.8,14,8.5,14S8,13.8,8,13.5v-11C8,2.2,8.2,2,8.5,2z M6.5,4
	C6.8,4,7,4.2,7,4.5v7C7,11.8,6.8,12,6.5,12S6,11.8,6,11.5v-7C6,4.2,6.2,4,6.5,4z M10.5,4C10.8,4,11,4.2,11,4.5v7
	c0,0.3-0.2,0.5-0.5,0.5S10,11.8,10,11.5v-7C10,4.2,10.2,4,10.5,4z M4.5,5.5C4.8,5.5,5,5.7,5,6v4c0,0.3-0.2,0.5-0.5,0.5S4,10.3,4,10
	V6C4,5.7,4.2,5.5,4.5,5.5z M12.5,5.5C12.8,5.5,13,5.7,13,6v4c0,0.3-0.2,0.5-0.5,0.5S12,10.3,12,10V6C12,5.7,12.2,5.5,12.5,5.5z
	 M2.5,6.5C2.8,6.5,3,6.7,3,7v2c0,0.3-0.2,0.5-0.5,0.5S2,9.3,2,9V7C2,6.7,2.2,6.5,2.5,6.5z M14.5,6.5C14.8,6.5,15,6.7,15,7v2
	c0,0.3-0.2,0.5-0.5,0.5S14,9.3,14,9V7C14,6.7,14.2,6.5,14.5,6.5z"/>
</svg>
