<?xml version="1.0" encoding="UTF-8" standalone="no"?>
<!DOCTYPE svg PUBLIC "-//W3C//DTD SVG 1.1//EN" "http://www.w3.org/Graphics/SVG/1.1/DTD/svg11.dtd">
<svg width="100%" height="100%" viewBox="0 0 141 12" version="1.1" xmlns="http://www.w3.org/2000/svg" xmlns:xlink="http://www.w3.org/1999/xlink" xml:space="preserve" xmlns:serif="http://www.serif.com/" style="fill-rule:evenodd;clip-rule:evenodd;stroke-linecap:square;stroke-linejoin:round;stroke-miterlimit:1.5;">
    <g id="File-Name" serif:id="File Name" transform="matrix(1,0,0,1,-63.6056,-187.187)">
        <g transform="matrix(11.6667,0,0,11.6667,63.2078,195.937)">
            <path d="M0.2,-0L0.283,-0L0.402,-0.419L0.411,-0.419L0.53,-0L0.612,-0L0.778,-0.545L0.69,-0.545L0.572,-0.129L0.567,-0.129L0.452,-0.545L0.362,-0.545L0.246,-0.128L0.24,-0.128L0.122,-0.545L0.034,-0.545L0.2,-0Z" style="fill:rgb(216,219,227);fill-rule:nonzero;"/>
        </g>
        <g transform="matrix(11.6667,0,0,11.6667,72.687,195.937)">
            <path d="M0.2,-0L0.283,-0L0.402,-0.419L0.411,-0.419L0.53,-0L0.612,-0L0.778,-0.545L0.69,-0.545L0.572,-0.129L0.567,-0.129L0.452,-0.545L0.362,-0.545L0.246,-0.128L0.24,-0.128L0.122,-0.545L0.034,-0.545L0.2,-0Z" style="fill:rgb(216,219,227);fill-rule:nonzero;"/>
        </g>
        <g transform="matrix(11.6667,0,0,11.6667,82.1662,195.937)">
            <path d="M0.2,-0L0.283,-0L0.402,-0.419L0.411,-0.419L0.53,-0L0.612,-0L0.778,-0.545L0.69,-0.545L0.572,-0.129L0.567,-0.129L0.452,-0.545L0.362,-0.545L0.246,-0.128L0.24,-0.128L0.122,-0.545L0.034,-0.545L0.2,-0Z" style="fill:rgb(216,219,227);fill-rule:nonzero;"/>
        </g>
        <g transform="matrix(11.6667,0,0,11.6667,90.7836,195.937)">
            <path d="M0.138,0.006C0.173,0.006 0.202,-0.023 0.202,-0.058C0.202,-0.093 0.173,-0.122 0.138,-0.122C0.103,-0.122 0.074,-0.093 0.074,-0.058C0.074,-0.023 0.103,0.006 0.138,0.006Z" style="fill:rgb(216,219,227);fill-rule:nonzero;"/>
        </g>
        <g transform="matrix(11.6667,0,0,11.6667,93.9985,195.937)">
            <path d="M0.463,-0.423C0.437,-0.501 0.378,-0.553 0.27,-0.553C0.155,-0.553 0.07,-0.487 0.07,-0.395C0.07,-0.32 0.114,-0.269 0.214,-0.246L0.305,-0.224C0.36,-0.212 0.386,-0.185 0.386,-0.148C0.386,-0.101 0.337,-0.062 0.259,-0.062C0.19,-0.062 0.147,-0.092 0.132,-0.151L0.053,-0.131C0.072,-0.038 0.148,0.011 0.26,0.011C0.387,0.011 0.473,-0.058 0.473,-0.152C0.473,-0.228 0.425,-0.276 0.328,-0.3L0.247,-0.32C0.183,-0.336 0.153,-0.357 0.153,-0.399C0.153,-0.446 0.203,-0.48 0.27,-0.48C0.343,-0.48 0.373,-0.44 0.388,-0.402L0.463,-0.423Z" style="fill:rgb(216,219,227);fill-rule:nonzero;"/>
        </g>
        <g transform="matrix(11.6667,0,0,11.6667,100.097,195.937)">
            <path d="M0.077,0.205L0.161,0.205L0.161,-0.084L0.168,-0.084C0.186,-0.054 0.222,0.011 0.327,0.011C0.463,0.011 0.558,-0.098 0.558,-0.271C0.558,-0.443 0.463,-0.553 0.325,-0.553C0.219,-0.553 0.186,-0.487 0.168,-0.459L0.158,-0.459L0.158,-0.545L0.077,-0.545L0.077,0.205ZM0.159,-0.273C0.159,-0.395 0.213,-0.477 0.315,-0.477C0.422,-0.477 0.474,-0.388 0.474,-0.273C0.474,-0.156 0.42,-0.064 0.315,-0.064C0.214,-0.064 0.159,-0.149 0.159,-0.273Z" style="fill:rgb(216,219,227);fill-rule:nonzero;"/>
        </g>
        <g transform="matrix(11.6667,0,0,11.6667,107.206,195.937)">
            <path d="M0.077,-0L0.161,-0L0.161,-0.545L0.077,-0.545L0.077,-0ZM0.119,-0.636C0.152,-0.636 0.179,-0.662 0.179,-0.693C0.179,-0.724 0.152,-0.75 0.119,-0.75C0.087,-0.75 0.06,-0.724 0.06,-0.693C0.06,-0.662 0.087,-0.636 0.119,-0.636Z" style="fill:rgb(216,219,227);fill-rule:nonzero;"/>
        </g>
        <g transform="matrix(11.6667,0,0,11.6667,109.974,195.937)">
            <path d="M0.314,-0.545L0.197,-0.545L0.197,-0.676L0.114,-0.676L0.114,-0.545L0.031,-0.545L0.031,-0.474L0.114,-0.474L0.114,-0.134C0.114,-0.038 0.19,0.007 0.261,0.007C0.293,0.007 0.312,0.001 0.324,-0.003L0.307,-0.078C0.3,-0.077 0.288,-0.074 0.27,-0.074C0.233,-0.074 0.197,-0.085 0.197,-0.156L0.197,-0.474L0.314,-0.474L0.314,-0.545Z" style="fill:rgb(216,219,227);fill-rule:nonzero;"/>
        </g>
        <g transform="matrix(11.6667,0,0,11.6667,114.15,195.937)">
            <path d="M0.305,0.011C0.416,0.011 0.497,-0.044 0.523,-0.126L0.442,-0.149C0.42,-0.092 0.371,-0.064 0.305,-0.064C0.207,-0.064 0.139,-0.127 0.135,-0.244L0.531,-0.244L0.531,-0.28C0.531,-0.483 0.411,-0.553 0.297,-0.553C0.149,-0.553 0.051,-0.436 0.051,-0.268C0.051,-0.101 0.148,0.011 0.305,0.011ZM0.135,-0.317C0.141,-0.402 0.201,-0.477 0.297,-0.477C0.388,-0.477 0.446,-0.409 0.446,-0.317L0.135,-0.317Z" style="fill:rgb(216,219,227);fill-rule:nonzero;"/>
        </g>
        <g transform="matrix(11.6667,0,0,11.6667,120.945,195.937)">
            <path d="M0.237,0.013C0.332,0.013 0.382,-0.038 0.399,-0.074L0.403,-0.074L0.403,-0L0.487,-0L0.487,-0.359C0.487,-0.533 0.355,-0.553 0.286,-0.553C0.203,-0.553 0.109,-0.524 0.067,-0.425L0.146,-0.396C0.165,-0.436 0.208,-0.479 0.288,-0.479C0.365,-0.479 0.403,-0.438 0.403,-0.368L0.403,-0.365C0.403,-0.325 0.362,-0.328 0.263,-0.315C0.162,-0.302 0.051,-0.28 0.051,-0.155C0.051,-0.048 0.134,0.013 0.237,0.013ZM0.25,-0.062C0.183,-0.062 0.135,-0.092 0.135,-0.151C0.135,-0.214 0.193,-0.234 0.259,-0.243C0.294,-0.247 0.389,-0.257 0.403,-0.274L0.403,-0.197C0.403,-0.129 0.349,-0.062 0.25,-0.062Z" style="fill:rgb(216,219,227);fill-rule:nonzero;"/>
        </g>
        <g transform="matrix(11.6667,0,0,11.6667,127.524,195.937)">
            <path d="M0.42,-0.223C0.42,-0.121 0.342,-0.074 0.28,-0.074C0.21,-0.074 0.161,-0.125 0.161,-0.205L0.161,-0.545L0.077,-0.545L0.077,-0.199C0.077,-0.06 0.151,0.007 0.253,0.007C0.335,0.007 0.389,-0.037 0.415,-0.092L0.42,-0.092L0.42,-0L0.504,-0L0.504,-0.545L0.42,-0.545L0.42,-0.223Z" style="fill:rgb(216,219,227);fill-rule:nonzero;"/>
        </g>
        <g transform="matrix(11.6667,0,0,11.6667,134.302,195.937)">
            <path d="M0.283,0.011C0.388,0.011 0.423,-0.054 0.442,-0.084L0.452,-0.084L0.452,-0L0.533,-0L0.533,-0.727L0.449,-0.727L0.449,-0.459L0.442,-0.459C0.423,-0.487 0.391,-0.553 0.284,-0.553C0.146,-0.553 0.051,-0.443 0.051,-0.271C0.051,-0.098 0.146,0.011 0.283,0.011ZM0.294,-0.064C0.189,-0.064 0.135,-0.156 0.135,-0.273C0.135,-0.388 0.187,-0.477 0.294,-0.477C0.396,-0.477 0.45,-0.395 0.45,-0.273C0.45,-0.149 0.395,-0.064 0.294,-0.064Z" style="fill:rgb(216,219,227);fill-rule:nonzero;"/>
        </g>
        <g transform="matrix(11.6667,0,0,11.6667,141.544,195.937)">
            <path d="M0.077,-0L0.161,-0L0.161,-0.545L0.077,-0.545L0.077,-0ZM0.119,-0.636C0.152,-0.636 0.179,-0.662 0.179,-0.693C0.179,-0.724 0.152,-0.75 0.119,-0.75C0.087,-0.75 0.06,-0.724 0.06,-0.693C0.06,-0.662 0.087,-0.636 0.119,-0.636Z" style="fill:rgb(216,219,227);fill-rule:nonzero;"/>
        </g>
        <g transform="matrix(11.6667,0,0,11.6667,144.311,195.937)">
            <path d="M0.298,0.011C0.446,0.011 0.545,-0.101 0.545,-0.27C0.545,-0.44 0.446,-0.553 0.298,-0.553C0.151,-0.553 0.051,-0.44 0.051,-0.27C0.051,-0.101 0.151,0.011 0.298,0.011ZM0.298,-0.064C0.186,-0.064 0.135,-0.161 0.135,-0.27C0.135,-0.379 0.186,-0.477 0.298,-0.477C0.411,-0.477 0.462,-0.379 0.462,-0.27C0.462,-0.161 0.411,-0.064 0.298,-0.064Z" style="fill:rgb(216,219,227);fill-rule:nonzero;"/>
        </g>
        <g transform="matrix(11.6667,0,0,11.6667,151.271,195.937)">
            <path d="M0.314,-0.545L0.197,-0.545L0.197,-0.676L0.114,-0.676L0.114,-0.545L0.031,-0.545L0.031,-0.474L0.114,-0.474L0.114,-0.134C0.114,-0.038 0.19,0.007 0.261,0.007C0.293,0.007 0.312,0.001 0.324,-0.003L0.307,-0.078C0.3,-0.077 0.288,-0.074 0.27,-0.074C0.233,-0.074 0.197,-0.085 0.197,-0.156L0.197,-0.474L0.314,-0.474L0.314,-0.545Z" style="fill:rgb(216,219,227);fill-rule:nonzero;"/>
        </g>
        <g transform="matrix(11.6667,0,0,11.6667,155.447,195.937)">
            <path d="M0.298,0.011C0.446,0.011 0.545,-0.101 0.545,-0.27C0.545,-0.44 0.446,-0.553 0.298,-0.553C0.151,-0.553 0.051,-0.44 0.051,-0.27C0.051,-0.101 0.151,0.011 0.298,0.011ZM0.298,-0.064C0.186,-0.064 0.135,-0.161 0.135,-0.27C0.135,-0.379 0.186,-0.477 0.298,-0.477C0.411,-0.477 0.462,-0.379 0.462,-0.27C0.462,-0.161 0.411,-0.064 0.298,-0.064Z" style="fill:rgb(216,219,227);fill-rule:nonzero;"/>
        </g>
        <g transform="matrix(11.6667,0,0,11.6667,162.408,195.937)">
            <path d="M0.298,0.011C0.446,0.011 0.545,-0.101 0.545,-0.27C0.545,-0.44 0.446,-0.553 0.298,-0.553C0.151,-0.553 0.051,-0.44 0.051,-0.27C0.051,-0.101 0.151,0.011 0.298,0.011ZM0.298,-0.064C0.186,-0.064 0.135,-0.161 0.135,-0.27C0.135,-0.379 0.186,-0.477 0.298,-0.477C0.411,-0.477 0.462,-0.379 0.462,-0.27C0.462,-0.161 0.411,-0.064 0.298,-0.064Z" style="fill:rgb(216,219,227);fill-rule:nonzero;"/>
        </g>
        <g transform="matrix(11.6667,0,0,11.6667,169.368,195.937)">
            <rect x="0.077" y="-0.727" width="0.084" height="0.727" style="fill:rgb(216,219,227);fill-rule:nonzero;"/>
        </g>
        <g transform="matrix(11.6667,0,0,11.6667,172.135,195.937)">
            <path d="M0.463,-0.423C0.437,-0.501 0.378,-0.553 0.27,-0.553C0.155,-0.553 0.07,-0.487 0.07,-0.395C0.07,-0.32 0.114,-0.269 0.214,-0.246L0.305,-0.224C0.36,-0.212 0.386,-0.185 0.386,-0.148C0.386,-0.101 0.337,-0.062 0.259,-0.062C0.19,-0.062 0.147,-0.092 0.132,-0.151L0.053,-0.131C0.072,-0.038 0.148,0.011 0.26,0.011C0.387,0.011 0.473,-0.058 0.473,-0.152C0.473,-0.228 0.425,-0.276 0.328,-0.3L0.247,-0.32C0.183,-0.336 0.153,-0.357 0.153,-0.399C0.153,-0.446 0.203,-0.48 0.27,-0.48C0.343,-0.48 0.373,-0.44 0.388,-0.402L0.463,-0.423Z" style="fill:rgb(216,219,227);fill-rule:nonzero;"/>
        </g>
        <g transform="matrix(11.6667,0,0,11.6667,178.234,195.937)">
            <path d="M0.138,0.006C0.173,0.006 0.202,-0.023 0.202,-0.058C0.202,-0.093 0.173,-0.122 0.138,-0.122C0.103,-0.122 0.074,-0.093 0.074,-0.058C0.074,-0.023 0.103,0.006 0.138,0.006Z" style="fill:rgb(216,219,227);fill-rule:nonzero;"/>
        </g>
        <g transform="matrix(11.6667,0,0,11.6667,181.449,195.937)">
            <path d="M0.298,0.011C0.419,0.011 0.499,-0.062 0.513,-0.159L0.429,-0.159C0.413,-0.099 0.364,-0.064 0.298,-0.064C0.199,-0.064 0.135,-0.146 0.135,-0.273C0.135,-0.396 0.2,-0.477 0.298,-0.477C0.372,-0.477 0.416,-0.432 0.429,-0.382L0.513,-0.382C0.499,-0.484 0.412,-0.553 0.297,-0.553C0.149,-0.553 0.051,-0.436 0.051,-0.27C0.051,-0.107 0.145,0.011 0.298,0.011Z" style="fill:rgb(216,219,227);fill-rule:nonzero;"/>
        </g>
        <g transform="matrix(11.6667,0,0,11.6667,187.962,195.937)">
            <path d="M0.298,0.011C0.446,0.011 0.545,-0.101 0.545,-0.27C0.545,-0.44 0.446,-0.553 0.298,-0.553C0.151,-0.553 0.051,-0.44 0.051,-0.27C0.051,-0.101 0.151,0.011 0.298,0.011ZM0.298,-0.064C0.186,-0.064 0.135,-0.161 0.135,-0.27C0.135,-0.379 0.186,-0.477 0.298,-0.477C0.411,-0.477 0.462,-0.379 0.462,-0.27C0.462,-0.161 0.411,-0.064 0.298,-0.064Z" style="fill:rgb(216,219,227);fill-rule:nonzero;"/>
        </g>
        <g transform="matrix(11.6667,0,0,11.6667,194.922,195.937)">
            <path d="M0.077,-0L0.161,-0L0.161,-0.341C0.161,-0.421 0.219,-0.477 0.284,-0.477C0.348,-0.477 0.392,-0.436 0.392,-0.374L0.392,-0L0.477,-0L0.477,-0.355C0.477,-0.425 0.521,-0.477 0.598,-0.477C0.658,-0.477 0.709,-0.446 0.709,-0.365L0.709,-0L0.793,-0L0.793,-0.365C0.793,-0.493 0.724,-0.553 0.626,-0.553C0.548,-0.553 0.491,-0.517 0.463,-0.46L0.457,-0.46C0.43,-0.518 0.383,-0.553 0.311,-0.553C0.24,-0.553 0.187,-0.518 0.165,-0.46L0.158,-0.46L0.158,-0.545L0.077,-0.545L0.077,-0Z" style="fill:rgb(216,219,227);fill-rule:nonzero;"/>
        </g>
    </g>
    <path d="M1.197,9.992L36.165,9.992" style="fill:none;stroke:rgb(216,219,227);stroke-width:0.67px;"/>
    <g transform="matrix(2.89882,0,0,1,35.7275,0)">
        <path d="M1.197,9.992L36.165,9.992" style="fill:none;stroke:rgb(216,219,227);stroke-width:0.31px;"/>
    </g>
</svg>
