<?xml version="1.0" encoding="UTF-8" standalone="no"?>
<!DOCTYPE svg PUBLIC "-//W3C//DTD SVG 1.1//EN" "http://www.w3.org/Graphics/SVG/1.1/DTD/svg11.dtd">
<svg width="100%" height="100%" viewBox="0 0 350 225" version="1.1" xmlns="http://www.w3.org/2000/svg" xmlns:xlink="http://www.w3.org/1999/xlink" xml:space="preserve" xmlns:serif="http://www.serif.com/" style="fill-rule:evenodd;clip-rule:evenodd;stroke-linejoin:round;stroke-miterlimit:2;">
    <g id="Background" transform="matrix(1.00071,0,0,1,-0.25,0)">
        <rect x="0" y="0" width="350" height="225" style="fill:rgb(26,26,26);"/>
    </g>
    <g id="Footer" transform="matrix(1,0,0,1,-0.0156356,0)">
        <g transform="matrix(0.576869,0,0,0.576869,66.0478,170.335)">
            <g transform="matrix(18.0572,0,0,18.0572,92.9662,54.7918)">
                <path d="M0.477,-0.536L0.582,-0.536C0.579,-0.653 0.476,-0.737 0.328,-0.737C0.183,-0.737 0.071,-0.654 0.071,-0.528C0.071,-0.427 0.143,-0.368 0.26,-0.336L0.346,-0.313C0.424,-0.292 0.484,-0.267 0.484,-0.202C0.484,-0.131 0.416,-0.084 0.322,-0.084C0.238,-0.084 0.168,-0.122 0.161,-0.201L0.051,-0.201C0.058,-0.069 0.16,0.012 0.323,0.012C0.494,0.012 0.592,-0.078 0.592,-0.201C0.592,-0.332 0.475,-0.383 0.383,-0.406L0.312,-0.424C0.255,-0.439 0.18,-0.465 0.18,-0.535C0.18,-0.597 0.237,-0.642 0.326,-0.642C0.409,-0.642 0.469,-0.603 0.477,-0.536Z" style="fill:rgb(51,51,51);fill-rule:nonzero;"/>
            </g>
            <g transform="matrix(18.0572,0,0,18.0572,104.585,54.7918)">
                <path d="M0.08,-0L0.19,-0L0.19,-0.256L0.339,-0.256C0.507,-0.256 0.591,-0.358 0.591,-0.492C0.591,-0.626 0.508,-0.727 0.339,-0.727L0.08,-0.727L0.08,-0ZM0.19,-0.349L0.19,-0.633L0.327,-0.633C0.436,-0.633 0.48,-0.574 0.48,-0.492C0.48,-0.409 0.436,-0.349 0.329,-0.349L0.19,-0.349Z" style="fill:rgb(51,51,51);fill-rule:nonzero;"/>
            </g>
            <g transform="matrix(18.0572,0,0,18.0572,116.128,54.7918)">
                <rect x="0.08" y="-0.727" width="0.11" height="0.727" style="fill:rgb(51,51,51);fill-rule:nonzero;"/>
            </g>
            <g transform="matrix(18.0572,0,0,18.0572,120.995,54.7918)">
                <path d="M0.044,-0.633L0.271,-0.633L0.271,-0L0.38,-0L0.38,-0.633L0.607,-0.633L0.607,-0.727L0.044,-0.727L0.044,-0.633Z" style="fill:rgb(51,51,51);fill-rule:nonzero;"/>
            </g>
            <g transform="matrix(18.0572,0,0,18.0572,132.749,54.7918)">
                <path d="M0.08,-0L0.54,-0L0.54,-0.094L0.19,-0.094L0.19,-0.317L0.512,-0.317L0.512,-0.411L0.19,-0.411L0.19,-0.633L0.536,-0.633L0.536,-0.727L0.08,-0.727L0.08,-0Z" style="fill:rgb(51,51,51);fill-rule:nonzero;"/>
            </g>
            <g transform="matrix(18.0572,0,0,18.0572,148.42,54.7918)">
                <rect x="0.07" y="-0.409" width="0.322" height="0.092" style="fill:rgb(51,51,51);fill-rule:nonzero;"/>
            </g>
            <g transform="matrix(18.0572,0,0,18.0572,161.566,54.7918)">
                <path d="M0.141,-0L0.208,-0.192L0.492,-0.192L0.559,-0L0.675,-0L0.413,-0.727L0.287,-0.727L0.025,-0L0.141,-0ZM0.24,-0.285L0.347,-0.595L0.353,-0.595L0.46,-0.285L0.24,-0.285Z" style="fill:rgb(51,51,51);fill-rule:nonzero;"/>
            </g>
            <g transform="matrix(18.0572,0,0,18.0572,174.205,54.7918)">
                <path d="M0.548,-0.727L0.548,-0.258C0.548,-0.159 0.479,-0.088 0.369,-0.088C0.258,-0.088 0.19,-0.159 0.19,-0.258L0.19,-0.727L0.08,-0.727L0.08,-0.249C0.08,-0.096 0.194,0.012 0.369,0.012C0.543,0.012 0.658,-0.096 0.658,-0.249L0.658,-0.727L0.548,-0.727Z" style="fill:rgb(51,51,51);fill-rule:nonzero;"/>
            </g>
            <g transform="matrix(18.0572,0,0,18.0572,187.523,54.7918)">
                <path d="M0.315,-0C0.537,-0 0.665,-0.137 0.665,-0.365C0.665,-0.591 0.537,-0.727 0.323,-0.727L0.08,-0.727L0.08,-0L0.315,-0ZM0.19,-0.096L0.19,-0.631L0.316,-0.631C0.475,-0.631 0.557,-0.536 0.557,-0.365C0.557,-0.192 0.475,-0.096 0.309,-0.096L0.19,-0.096Z" style="fill:rgb(51,51,51);fill-rule:nonzero;"/>
            </g>
            <g transform="matrix(18.0572,0,0,18.0572,200.553,54.7918)">
                <rect x="0.08" y="-0.727" width="0.11" height="0.727" style="fill:rgb(51,51,51);fill-rule:nonzero;"/>
            </g>
            <g transform="matrix(18.0572,0,0,18.0572,205.42,54.7918)">
                <path d="M0.712,-0.364C0.712,-0.596 0.572,-0.737 0.384,-0.737C0.195,-0.737 0.056,-0.596 0.056,-0.364C0.056,-0.131 0.195,0.01 0.384,0.01C0.572,0.01 0.712,-0.131 0.712,-0.364ZM0.603,-0.364C0.603,-0.186 0.509,-0.09 0.384,-0.09C0.259,-0.09 0.165,-0.186 0.165,-0.364C0.165,-0.541 0.259,-0.637 0.384,-0.637C0.509,-0.637 0.603,-0.541 0.603,-0.364Z" style="fill:rgb(51,51,51);fill-rule:nonzero;"/>
            </g>
            <g transform="matrix(18.0572,0,0,18.0572,224.074,54.7918)">
                <path d="M0.044,-0.633L0.271,-0.633L0.271,-0L0.38,-0L0.38,-0.633L0.607,-0.633L0.607,-0.727L0.044,-0.727L0.044,-0.633Z" style="fill:rgb(51,51,51);fill-rule:nonzero;"/>
            </g>
            <g transform="matrix(18.0572,0,0,18.0572,235.276,54.7918)">
                <path d="M0.712,-0.364C0.712,-0.596 0.572,-0.737 0.384,-0.737C0.195,-0.737 0.056,-0.596 0.056,-0.364C0.056,-0.131 0.195,0.01 0.384,0.01C0.572,0.01 0.712,-0.131 0.712,-0.364ZM0.603,-0.364C0.603,-0.186 0.509,-0.09 0.384,-0.09C0.259,-0.09 0.165,-0.186 0.165,-0.364C0.165,-0.541 0.259,-0.637 0.384,-0.637C0.509,-0.637 0.603,-0.541 0.603,-0.364Z" style="fill:rgb(51,51,51);fill-rule:nonzero;"/>
            </g>
            <g transform="matrix(18.0572,0,0,18.0572,249.146,54.7918)">
                <path d="M0.712,-0.364C0.712,-0.596 0.572,-0.737 0.384,-0.737C0.195,-0.737 0.056,-0.596 0.056,-0.364C0.056,-0.131 0.195,0.01 0.384,0.01C0.572,0.01 0.712,-0.131 0.712,-0.364ZM0.603,-0.364C0.603,-0.186 0.509,-0.09 0.384,-0.09C0.259,-0.09 0.165,-0.186 0.165,-0.364C0.165,-0.541 0.259,-0.637 0.384,-0.637C0.509,-0.637 0.603,-0.541 0.603,-0.364Z" style="fill:rgb(51,51,51);fill-rule:nonzero;"/>
            </g>
            <g transform="matrix(18.0572,0,0,18.0572,263.016,54.7918)">
                <path d="M0.08,-0L0.519,-0L0.519,-0.094L0.19,-0.094L0.19,-0.727L0.08,-0.727L0.08,-0Z" style="fill:rgb(51,51,51);fill-rule:nonzero;"/>
            </g>
            <g transform="matrix(18.0572,0,0,18.0572,273.205,54.7918)">
                <path d="M0.477,-0.536L0.582,-0.536C0.579,-0.653 0.476,-0.737 0.328,-0.737C0.183,-0.737 0.071,-0.654 0.071,-0.528C0.071,-0.427 0.143,-0.368 0.26,-0.336L0.346,-0.313C0.424,-0.292 0.484,-0.267 0.484,-0.202C0.484,-0.131 0.416,-0.084 0.322,-0.084C0.238,-0.084 0.168,-0.122 0.161,-0.201L0.051,-0.201C0.058,-0.069 0.16,0.012 0.323,0.012C0.494,0.012 0.592,-0.078 0.592,-0.201C0.592,-0.332 0.475,-0.383 0.383,-0.406L0.312,-0.424C0.255,-0.439 0.18,-0.465 0.18,-0.535C0.18,-0.597 0.237,-0.642 0.326,-0.642C0.409,-0.642 0.469,-0.603 0.477,-0.536Z" style="fill:rgb(51,51,51);fill-rule:nonzero;"/>
            </g>
        </g>
        <g id="Divider" transform="matrix(0.998405,0,0,1,0.0287582,0)">
            <g id="Divider-Bottom" serif:id="Divider Bottom" transform="matrix(15.4217,0,0,1,-324.362,1.64883)">
                <rect x="22.202" y="169.198" width="20.326" height="1.486" style="fill:rgb(29,29,29);"/>
            </g>
            <g id="Divider-Top" serif:id="Divider Top" transform="matrix(15.4217,0,0,1,-324.362,0.162725)">
                <rect x="22.202" y="169.198" width="20.326" height="1.486" style="fill:rgb(20,20,20);"/>
            </g>
        </g>
    </g>
    <g transform="matrix(0.255379,0,0,0.255379,46.6053,114.518)">
        <g id="Mid-Section" serif:id="Mid Section">
            <g transform="matrix(48.9469,0,0,48.9469,116.532,76.6434)">
                <path d="M0.077,-0.727L0.03,-0.727L0.293,-0L0.344,-0L0.606,-0.727L0.559,-0.727L0.321,-0.057L0.316,-0.057L0.077,-0.727Z" style="fill:rgb(191,191,191);fill-rule:nonzero;"/>
            </g>
            <g transform="matrix(48.9469,0,0,48.9469,147.68,76.6434)">
                <path d="M0.092,-0L0.135,-0L0.135,-0.545L0.092,-0.545L0.092,-0ZM0.114,-0.642C0.133,-0.642 0.148,-0.657 0.148,-0.676C0.148,-0.695 0.133,-0.71 0.114,-0.71C0.094,-0.71 0.078,-0.695 0.078,-0.676C0.078,-0.657 0.094,-0.642 0.114,-0.642Z" style="fill:rgb(191,191,191);fill-rule:nonzero;"/>
            </g>
            <g transform="matrix(48.9469,0,0,48.9469,158.787,76.6434)">
                <path d="M0.436,-0.428C0.41,-0.508 0.353,-0.554 0.26,-0.554C0.156,-0.554 0.081,-0.493 0.081,-0.405C0.081,-0.335 0.125,-0.286 0.214,-0.264L0.301,-0.243C0.366,-0.227 0.399,-0.191 0.399,-0.141C0.399,-0.075 0.339,-0.028 0.25,-0.028C0.169,-0.028 0.119,-0.066 0.104,-0.137L0.062,-0.127C0.081,-0.038 0.149,0.011 0.25,0.011C0.364,0.011 0.443,-0.052 0.443,-0.142C0.443,-0.213 0.399,-0.261 0.313,-0.283L0.229,-0.304C0.158,-0.321 0.124,-0.355 0.124,-0.407C0.124,-0.471 0.18,-0.514 0.26,-0.514C0.335,-0.514 0.376,-0.477 0.396,-0.417L0.436,-0.428Z" style="fill:rgb(191,191,191);fill-rule:nonzero;"/>
            </g>
            <g transform="matrix(48.9469,0,0,48.9469,183.399,76.6434)">
                <path d="M0.092,-0L0.135,-0L0.135,-0.545L0.092,-0.545L0.092,-0ZM0.114,-0.642C0.133,-0.642 0.148,-0.657 0.148,-0.676C0.148,-0.695 0.133,-0.71 0.114,-0.71C0.094,-0.71 0.078,-0.695 0.078,-0.676C0.078,-0.657 0.094,-0.642 0.114,-0.642Z" style="fill:rgb(191,191,191);fill-rule:nonzero;"/>
            </g>
            <g transform="matrix(48.9469,0,0,48.9469,194.506,76.6434)">
                <path d="M0.283,-0.545L0.168,-0.545L0.168,-0.676L0.125,-0.676L0.125,-0.545L0.044,-0.545L0.044,-0.507L0.125,-0.507L0.125,-0.121C0.125,-0.038 0.189,0.009 0.257,0.009C0.279,0.009 0.294,0.005 0.308,-0L0.297,-0.039C0.287,-0.036 0.276,-0.033 0.26,-0.033C0.212,-0.033 0.168,-0.063 0.168,-0.129L0.168,-0.507L0.283,-0.507L0.283,-0.545Z" style="fill:rgb(191,191,191);fill-rule:nonzero;"/>
            </g>
            <g transform="matrix(48.9469,0,0,48.9469,225.567,76.6434)">
                <path d="M0.293,0.011C0.428,0.011 0.526,-0.107 0.526,-0.271C0.526,-0.435 0.427,-0.554 0.293,-0.554C0.158,-0.554 0.06,-0.435 0.06,-0.271C0.06,-0.107 0.158,0.011 0.293,0.011ZM0.293,-0.029C0.178,-0.029 0.103,-0.136 0.103,-0.271C0.103,-0.406 0.179,-0.513 0.293,-0.513C0.407,-0.513 0.483,-0.406 0.483,-0.271C0.483,-0.136 0.407,-0.029 0.293,-0.029Z" style="fill:rgb(191,191,191);fill-rule:nonzero;"/>
            </g>
            <g transform="matrix(48.9469,0,0,48.9469,254.212,76.6434)">
                <path d="M0.439,-0.194C0.439,-0.096 0.367,-0.035 0.282,-0.035C0.194,-0.035 0.133,-0.097 0.133,-0.187L0.133,-0.545L0.09,-0.545L0.09,-0.186C0.09,-0.066 0.166,0.007 0.273,0.007C0.35,0.007 0.41,-0.032 0.436,-0.088L0.439,-0.088L0.439,-0L0.483,-0L0.483,-0.545L0.439,-0.545L0.439,-0.194Z" style="fill:rgb(191,191,191);fill-rule:nonzero;"/>
            </g>
            <g transform="matrix(48.9469,0,0,48.9469,282.231,76.6434)">
                <path d="M0.09,-0L0.133,-0L0.133,-0.359C0.133,-0.447 0.199,-0.511 0.29,-0.511C0.301,-0.511 0.309,-0.51 0.314,-0.509L0.314,-0.553C0.308,-0.553 0.3,-0.553 0.292,-0.553C0.22,-0.553 0.159,-0.516 0.136,-0.46L0.132,-0.46L0.132,-0.545L0.09,-0.545L0.09,-0Z" style="fill:rgb(191,191,191);fill-rule:nonzero;"/>
            </g>
            <g transform="matrix(48.9469,0,0,48.9469,312.684,76.6434)">
                <path d="M0.293,0.011C0.428,0.011 0.526,-0.107 0.526,-0.271C0.526,-0.435 0.427,-0.554 0.293,-0.554C0.158,-0.554 0.06,-0.435 0.06,-0.271C0.06,-0.107 0.158,0.011 0.293,0.011ZM0.293,-0.029C0.178,-0.029 0.103,-0.136 0.103,-0.271C0.103,-0.406 0.179,-0.513 0.293,-0.513C0.407,-0.513 0.483,-0.406 0.483,-0.271C0.483,-0.136 0.407,-0.029 0.293,-0.029Z" style="fill:rgb(191,191,191);fill-rule:nonzero;"/>
            </g>
            <g transform="matrix(48.9469,0,0,48.9469,341.329,76.6434)">
                <path d="M0.296,-0.545L0.176,-0.545L0.176,-0.624C0.176,-0.684 0.216,-0.719 0.271,-0.719C0.288,-0.719 0.3,-0.716 0.311,-0.712L0.324,-0.75C0.31,-0.755 0.293,-0.76 0.268,-0.76C0.197,-0.76 0.134,-0.713 0.134,-0.63L0.134,-0.545L0.054,-0.545L0.054,-0.507L0.134,-0.507L0.134,-0L0.176,-0L0.176,-0.507L0.296,-0.507L0.296,-0.545Z" style="fill:rgb(191,191,191);fill-rule:nonzero;"/>
            </g>
            <g transform="matrix(48.9469,0,0,48.9469,358.016,76.6434)">
                <path d="M0.296,-0.545L0.176,-0.545L0.176,-0.624C0.176,-0.684 0.216,-0.719 0.271,-0.719C0.288,-0.719 0.3,-0.716 0.311,-0.712L0.324,-0.75C0.31,-0.755 0.293,-0.76 0.268,-0.76C0.197,-0.76 0.134,-0.713 0.134,-0.63L0.134,-0.545L0.054,-0.545L0.054,-0.507L0.134,-0.507L0.134,-0L0.176,-0L0.176,-0.507L0.296,-0.507L0.296,-0.545Z" style="fill:rgb(191,191,191);fill-rule:nonzero;"/>
            </g>
            <g transform="matrix(48.9469,0,0,48.9469,374.702,76.6434)">
                <path d="M0.092,-0L0.135,-0L0.135,-0.545L0.092,-0.545L0.092,-0ZM0.114,-0.642C0.133,-0.642 0.148,-0.657 0.148,-0.676C0.148,-0.695 0.133,-0.71 0.114,-0.71C0.094,-0.71 0.078,-0.695 0.078,-0.676C0.078,-0.657 0.094,-0.642 0.114,-0.642Z" style="fill:rgb(191,191,191);fill-rule:nonzero;"/>
            </g>
            <g transform="matrix(48.9469,0,0,48.9469,385.809,76.6434)">
                <path d="M0.294,0.011C0.401,0.011 0.481,-0.058 0.497,-0.159L0.453,-0.159C0.439,-0.08 0.374,-0.029 0.294,-0.029C0.18,-0.029 0.103,-0.133 0.103,-0.272C0.103,-0.412 0.184,-0.513 0.294,-0.513C0.376,-0.513 0.438,-0.458 0.452,-0.385L0.496,-0.385C0.48,-0.485 0.397,-0.554 0.294,-0.554C0.156,-0.554 0.06,-0.433 0.06,-0.271C0.06,-0.109 0.155,0.011 0.294,0.011Z" style="fill:rgb(191,191,191);fill-rule:nonzero;"/>
            </g>
            <g transform="matrix(48.9469,0,0,48.9469,412.942,76.6434)">
                <path d="M0.092,-0L0.135,-0L0.135,-0.545L0.092,-0.545L0.092,-0ZM0.114,-0.642C0.133,-0.642 0.148,-0.657 0.148,-0.676C0.148,-0.695 0.133,-0.71 0.114,-0.71C0.094,-0.71 0.078,-0.695 0.078,-0.676C0.078,-0.657 0.094,-0.642 0.114,-0.642Z" style="fill:rgb(191,191,191);fill-rule:nonzero;"/>
            </g>
            <g transform="matrix(48.9469,0,0,48.9469,424.049,76.6434)">
                <path d="M0.234,0.012C0.321,0.012 0.382,-0.037 0.411,-0.098L0.414,-0.098L0.414,-0L0.457,-0L0.457,-0.381C0.457,-0.5 0.368,-0.554 0.271,-0.554C0.187,-0.554 0.108,-0.516 0.077,-0.437L0.118,-0.422C0.139,-0.476 0.195,-0.514 0.272,-0.514C0.36,-0.514 0.414,-0.463 0.414,-0.384L0.414,-0.361C0.414,-0.319 0.353,-0.315 0.27,-0.305C0.124,-0.287 0.061,-0.241 0.061,-0.15C0.061,-0.047 0.14,0.012 0.234,0.012ZM0.239,-0.028C0.162,-0.028 0.105,-0.074 0.105,-0.149C0.105,-0.216 0.154,-0.252 0.274,-0.267C0.327,-0.273 0.391,-0.283 0.414,-0.301L0.414,-0.221C0.414,-0.11 0.341,-0.028 0.239,-0.028Z" style="fill:rgb(191,191,191);fill-rule:nonzero;"/>
            </g>
            <g transform="matrix(48.9469,0,0,48.9469,450.903,76.6434)">
                <rect x="0.09" y="-0.727" width="0.043" height="0.727" style="fill:rgb(191,191,191);fill-rule:nonzero;"/>
            </g>
            <g transform="matrix(48.9469,0,0,48.9469,475.586,76.6434)">
                <path d="M0.209,-0L0.257,-0L0.396,-0.475L0.401,-0.475L0.54,-0L0.588,-0L0.752,-0.545L0.706,-0.545L0.566,-0.064L0.562,-0.064L0.422,-0.545L0.376,-0.545L0.235,-0.064L0.232,-0.064L0.091,-0.545L0.045,-0.545L0.209,-0Z" style="fill:rgb(191,191,191);fill-rule:nonzero;"/>
            </g>
            <g transform="matrix(48.9469,0,0,48.9469,513.704,76.6434)">
                <path d="M0.303,0.011C0.41,0.011 0.476,-0.051 0.501,-0.107L0.462,-0.123C0.441,-0.082 0.391,-0.029 0.303,-0.029C0.179,-0.029 0.104,-0.129 0.103,-0.263L0.519,-0.263L0.519,-0.29C0.519,-0.452 0.414,-0.554 0.292,-0.554C0.157,-0.554 0.06,-0.433 0.06,-0.27C0.06,-0.108 0.154,0.011 0.303,0.011ZM0.103,-0.303C0.112,-0.422 0.189,-0.513 0.292,-0.513C0.396,-0.513 0.475,-0.421 0.475,-0.303L0.103,-0.303Z" style="fill:rgb(191,191,191);fill-rule:nonzero;"/>
            </g>
            <g transform="matrix(48.9469,0,0,48.9469,542.018,76.6434)">
                <path d="M0.105,-0L0.147,-0L0.147,-0.119L0.152,-0.119C0.178,-0.049 0.235,0.011 0.328,0.011C0.46,0.011 0.546,-0.106 0.546,-0.271C0.546,-0.436 0.459,-0.554 0.328,-0.554C0.235,-0.554 0.178,-0.494 0.152,-0.424L0.148,-0.424L0.148,-0.727L0.105,-0.727L0.105,-0ZM0.148,-0.272C0.148,-0.411 0.214,-0.513 0.325,-0.513C0.437,-0.513 0.503,-0.409 0.503,-0.272C0.503,-0.135 0.437,-0.029 0.325,-0.029C0.214,-0.029 0.148,-0.132 0.148,-0.272Z" style="fill:rgb(191,191,191);fill-rule:nonzero;"/>
            </g>
            <g transform="matrix(48.9469,0,0,48.9469,571.654,76.6434)">
                <path d="M0.436,-0.428C0.41,-0.508 0.353,-0.554 0.26,-0.554C0.156,-0.554 0.081,-0.493 0.081,-0.405C0.081,-0.335 0.125,-0.286 0.214,-0.264L0.301,-0.243C0.366,-0.227 0.399,-0.191 0.399,-0.141C0.399,-0.075 0.339,-0.028 0.25,-0.028C0.169,-0.028 0.119,-0.066 0.104,-0.137L0.062,-0.127C0.081,-0.038 0.149,0.011 0.25,0.011C0.364,0.011 0.443,-0.052 0.443,-0.142C0.443,-0.213 0.399,-0.261 0.313,-0.283L0.229,-0.304C0.158,-0.321 0.124,-0.355 0.124,-0.407C0.124,-0.471 0.18,-0.514 0.26,-0.514C0.335,-0.514 0.376,-0.477 0.396,-0.417L0.436,-0.428Z" style="fill:rgb(191,191,191);fill-rule:nonzero;"/>
            </g>
            <g transform="matrix(48.9469,0,0,48.9469,596.267,76.6434)">
                <path d="M0.092,-0L0.135,-0L0.135,-0.545L0.092,-0.545L0.092,-0ZM0.114,-0.642C0.133,-0.642 0.148,-0.657 0.148,-0.676C0.148,-0.695 0.133,-0.71 0.114,-0.71C0.094,-0.71 0.078,-0.695 0.078,-0.676C0.078,-0.657 0.094,-0.642 0.114,-0.642Z" style="fill:rgb(191,191,191);fill-rule:nonzero;"/>
            </g>
            <g transform="matrix(48.9469,0,0,48.9469,607.374,76.6434)">
                <path d="M0.283,-0.545L0.168,-0.545L0.168,-0.676L0.125,-0.676L0.125,-0.545L0.044,-0.545L0.044,-0.507L0.125,-0.507L0.125,-0.121C0.125,-0.038 0.189,0.009 0.257,0.009C0.279,0.009 0.294,0.005 0.308,-0L0.297,-0.039C0.287,-0.036 0.276,-0.033 0.26,-0.033C0.212,-0.033 0.168,-0.063 0.168,-0.129L0.168,-0.507L0.283,-0.507L0.283,-0.545Z" style="fill:rgb(191,191,191);fill-rule:nonzero;"/>
            </g>
            <g transform="matrix(48.9469,0,0,48.9469,624.39,76.6434)">
                <path d="M0.303,0.011C0.41,0.011 0.476,-0.051 0.501,-0.107L0.462,-0.123C0.441,-0.082 0.391,-0.029 0.303,-0.029C0.179,-0.029 0.104,-0.129 0.103,-0.263L0.519,-0.263L0.519,-0.29C0.519,-0.452 0.414,-0.554 0.292,-0.554C0.157,-0.554 0.06,-0.433 0.06,-0.27C0.06,-0.108 0.154,0.011 0.303,0.011ZM0.103,-0.303C0.112,-0.422 0.189,-0.513 0.292,-0.513C0.396,-0.513 0.475,-0.421 0.475,-0.303L0.103,-0.303Z" style="fill:rgb(191,191,191);fill-rule:nonzero;"/>
            </g>
            <g transform="matrix(48.9469,0,0,48.9469,666.471,76.6434)">
                <path d="M0.234,0.012C0.321,0.012 0.382,-0.037 0.411,-0.098L0.414,-0.098L0.414,-0L0.457,-0L0.457,-0.381C0.457,-0.5 0.368,-0.554 0.271,-0.554C0.187,-0.554 0.108,-0.516 0.077,-0.437L0.118,-0.422C0.139,-0.476 0.195,-0.514 0.272,-0.514C0.36,-0.514 0.414,-0.463 0.414,-0.384L0.414,-0.361C0.414,-0.319 0.353,-0.315 0.27,-0.305C0.124,-0.287 0.061,-0.241 0.061,-0.15C0.061,-0.047 0.14,0.012 0.234,0.012ZM0.239,-0.028C0.162,-0.028 0.105,-0.074 0.105,-0.149C0.105,-0.216 0.154,-0.252 0.274,-0.267C0.327,-0.273 0.391,-0.283 0.414,-0.301L0.414,-0.221C0.414,-0.11 0.341,-0.028 0.239,-0.028Z" style="fill:rgb(191,191,191);fill-rule:nonzero;"/>
            </g>
            <g transform="matrix(48.9469,0,0,48.9469,693.326,76.6434)">
                <path d="M0.133,-0.354C0.133,-0.449 0.199,-0.512 0.29,-0.512C0.381,-0.512 0.441,-0.451 0.441,-0.358L0.441,-0L0.484,-0L0.484,-0.36C0.484,-0.479 0.408,-0.553 0.298,-0.553C0.221,-0.553 0.162,-0.516 0.136,-0.459L0.132,-0.459L0.132,-0.545L0.09,-0.545L0.09,-0L0.133,-0L0.133,-0.354Z" style="fill:rgb(191,191,191);fill-rule:nonzero;"/>
            </g>
            <g transform="matrix(48.9469,0,0,48.9469,721.415,76.6434)">
                <path d="M0.277,0.011C0.37,0.011 0.427,-0.049 0.453,-0.119L0.458,-0.119L0.458,-0L0.5,-0L0.5,-0.727L0.457,-0.727L0.457,-0.424L0.453,-0.424C0.428,-0.494 0.371,-0.554 0.277,-0.554C0.146,-0.554 0.06,-0.436 0.06,-0.271C0.06,-0.106 0.145,0.011 0.277,0.011ZM0.281,-0.029C0.169,-0.029 0.103,-0.135 0.103,-0.272C0.103,-0.409 0.169,-0.513 0.281,-0.513C0.392,-0.513 0.458,-0.411 0.458,-0.272C0.458,-0.132 0.392,-0.029 0.281,-0.029Z" style="fill:rgb(191,191,191);fill-rule:nonzero;"/>
            </g>
            <g transform="matrix(48.9469,0,0,48.9469,764.817,76.6434)">
                <path d="M0.436,-0.428C0.41,-0.508 0.353,-0.554 0.26,-0.554C0.156,-0.554 0.081,-0.493 0.081,-0.405C0.081,-0.335 0.125,-0.286 0.214,-0.264L0.301,-0.243C0.366,-0.227 0.399,-0.191 0.399,-0.141C0.399,-0.075 0.339,-0.028 0.25,-0.028C0.169,-0.028 0.119,-0.066 0.104,-0.137L0.062,-0.127C0.081,-0.038 0.149,0.011 0.25,0.011C0.364,0.011 0.443,-0.052 0.443,-0.142C0.443,-0.213 0.399,-0.261 0.313,-0.283L0.229,-0.304C0.158,-0.321 0.124,-0.355 0.124,-0.407C0.124,-0.471 0.18,-0.514 0.26,-0.514C0.335,-0.514 0.376,-0.477 0.396,-0.417L0.436,-0.428Z" style="fill:rgb(191,191,191);fill-rule:nonzero;"/>
            </g>
            <g transform="matrix(48.9469,0,0,48.9469,789.43,76.6434)">
                <path d="M0.283,-0.545L0.168,-0.545L0.168,-0.676L0.125,-0.676L0.125,-0.545L0.044,-0.545L0.044,-0.507L0.125,-0.507L0.125,-0.121C0.125,-0.038 0.189,0.009 0.257,0.009C0.279,0.009 0.294,0.005 0.308,-0L0.297,-0.039C0.287,-0.036 0.276,-0.033 0.26,-0.033C0.212,-0.033 0.168,-0.063 0.168,-0.129L0.168,-0.507L0.283,-0.507L0.283,-0.545Z" style="fill:rgb(191,191,191);fill-rule:nonzero;"/>
            </g>
            <g transform="matrix(48.9469,0,0,48.9469,806.446,76.6434)">
                <path d="M0.293,0.011C0.428,0.011 0.526,-0.107 0.526,-0.271C0.526,-0.435 0.427,-0.554 0.293,-0.554C0.158,-0.554 0.06,-0.435 0.06,-0.271C0.06,-0.107 0.158,0.011 0.293,0.011ZM0.293,-0.029C0.178,-0.029 0.103,-0.136 0.103,-0.271C0.103,-0.406 0.179,-0.513 0.293,-0.513C0.407,-0.513 0.483,-0.406 0.483,-0.271C0.483,-0.136 0.407,-0.029 0.293,-0.029Z" style="fill:rgb(191,191,191);fill-rule:nonzero;"/>
            </g>
            <g transform="matrix(48.9469,0,0,48.9469,835.091,76.6434)">
                <path d="M0.09,-0L0.133,-0L0.133,-0.359C0.133,-0.447 0.199,-0.511 0.29,-0.511C0.301,-0.511 0.309,-0.51 0.314,-0.509L0.314,-0.553C0.308,-0.553 0.3,-0.553 0.292,-0.553C0.22,-0.553 0.159,-0.516 0.136,-0.46L0.132,-0.46L0.132,-0.545L0.09,-0.545L0.09,-0Z" style="fill:rgb(191,191,191);fill-rule:nonzero;"/>
            </g>
            <g transform="matrix(48.9469,0,0,48.9469,850.943,76.6434)">
                <path d="M0.303,0.011C0.41,0.011 0.476,-0.051 0.501,-0.107L0.462,-0.123C0.441,-0.082 0.391,-0.029 0.303,-0.029C0.179,-0.029 0.104,-0.129 0.103,-0.263L0.519,-0.263L0.519,-0.29C0.519,-0.452 0.414,-0.554 0.292,-0.554C0.157,-0.554 0.06,-0.433 0.06,-0.27C0.06,-0.108 0.154,0.011 0.303,0.011ZM0.103,-0.303C0.112,-0.422 0.189,-0.513 0.292,-0.513C0.396,-0.513 0.475,-0.421 0.475,-0.303L0.103,-0.303Z" style="fill:rgb(191,191,191);fill-rule:nonzero;"/>
            </g>
            <g transform="matrix(48.9469,0,0,48.9469,879.258,76.6434)">
                <path d="M0.13,-0.415C0.151,-0.415 0.169,-0.433 0.169,-0.454C0.169,-0.475 0.151,-0.492 0.13,-0.492C0.109,-0.492 0.092,-0.475 0.092,-0.454C0.092,-0.433 0.109,-0.415 0.13,-0.415ZM0.13,-0.033C0.151,-0.033 0.169,-0.05 0.169,-0.072C0.169,-0.093 0.151,-0.11 0.13,-0.11C0.109,-0.11 0.092,-0.093 0.092,-0.072C0.092,-0.05 0.109,-0.033 0.13,-0.033Z" style="fill:rgb(191,191,191);fill-rule:nonzero;"/>
            </g>
        </g>
    </g>
    <g transform="matrix(0.255379,0,0,0.255379,95.6287,74.5178)">
        <g id="Mid-Section1" serif:id="Mid Section">
            <g transform="matrix(48.9469,0,0,48.9469,116.532,76.6434)">
                <path d="M0.105,-0L0.15,-0L0.15,-0.29L0.33,-0.29C0.467,-0.29 0.551,-0.383 0.551,-0.509C0.551,-0.635 0.467,-0.727 0.329,-0.727L0.105,-0.727L0.105,-0ZM0.15,-0.331L0.15,-0.686L0.328,-0.686C0.44,-0.686 0.507,-0.612 0.507,-0.509C0.507,-0.406 0.44,-0.331 0.328,-0.331L0.15,-0.331Z" style="fill:rgb(191,191,191);fill-rule:nonzero;"/>
            </g>
            <g transform="matrix(48.9469,0,0,48.9469,146.689,76.6434)">
                <rect x="0.09" y="-0.727" width="0.043" height="0.727" style="fill:rgb(191,191,191);fill-rule:nonzero;"/>
            </g>
            <g transform="matrix(48.9469,0,0,48.9469,157.605,76.6434)">
                <path d="M0.439,-0.194C0.439,-0.096 0.367,-0.035 0.282,-0.035C0.194,-0.035 0.133,-0.097 0.133,-0.187L0.133,-0.545L0.09,-0.545L0.09,-0.186C0.09,-0.066 0.166,0.007 0.273,0.007C0.35,0.007 0.41,-0.032 0.436,-0.088L0.439,-0.088L0.439,-0L0.483,-0L0.483,-0.545L0.439,-0.545L0.439,-0.194Z" style="fill:rgb(191,191,191);fill-rule:nonzero;"/>
            </g>
            <g transform="matrix(48.9469,0,0,48.9469,185.624,76.6434)">
                <path d="M0.287,0.216C0.414,0.216 0.5,0.15 0.5,0.013L0.5,-0.545L0.458,-0.545L0.458,-0.424L0.453,-0.424C0.428,-0.494 0.372,-0.554 0.277,-0.554C0.145,-0.554 0.06,-0.436 0.06,-0.273C0.06,-0.109 0.148,-0.003 0.277,-0.003C0.366,-0.003 0.428,-0.054 0.453,-0.125L0.457,-0.125L0.457,0.011C0.457,0.123 0.392,0.176 0.287,0.176C0.199,0.176 0.143,0.138 0.12,0.085L0.083,0.107C0.113,0.174 0.185,0.216 0.287,0.216ZM0.281,-0.043C0.169,-0.043 0.103,-0.137 0.103,-0.273C0.103,-0.409 0.168,-0.513 0.281,-0.513C0.392,-0.513 0.458,-0.411 0.458,-0.273C0.458,-0.131 0.39,-0.043 0.281,-0.043Z" style="fill:rgb(191,191,191);fill-rule:nonzero;"/>
            </g>
            <g transform="matrix(48.9469,0,0,48.9469,214.617,76.6434)">
                <path d="M0.092,-0L0.135,-0L0.135,-0.545L0.092,-0.545L0.092,-0ZM0.114,-0.642C0.133,-0.642 0.148,-0.657 0.148,-0.676C0.148,-0.695 0.133,-0.71 0.114,-0.71C0.094,-0.71 0.078,-0.695 0.078,-0.676C0.078,-0.657 0.094,-0.642 0.114,-0.642Z" style="fill:rgb(191,191,191);fill-rule:nonzero;"/>
            </g>
            <g transform="matrix(48.9469,0,0,48.9469,225.723,76.6434)">
                <path d="M0.133,-0.354C0.133,-0.449 0.199,-0.512 0.29,-0.512C0.381,-0.512 0.441,-0.451 0.441,-0.358L0.441,-0L0.484,-0L0.484,-0.36C0.484,-0.479 0.408,-0.553 0.298,-0.553C0.221,-0.553 0.162,-0.516 0.136,-0.459L0.132,-0.459L0.132,-0.545L0.09,-0.545L0.09,-0L0.133,-0L0.133,-0.354Z" style="fill:rgb(191,191,191);fill-rule:nonzero;"/>
            </g>
            <g transform="matrix(48.9469,0,0,48.9469,267.579,76.6434)">
                <path d="M0.489,-0.545L0.442,-0.545L0.269,-0.056L0.265,-0.056L0.092,-0.545L0.045,-0.545L0.243,-0L0.292,-0L0.489,-0.545Z" style="fill:rgb(191,191,191);fill-rule:nonzero;"/>
            </g>
            <g transform="matrix(48.9469,0,0,48.9469,292.747,76.6434)">
                <path d="M0.303,0.011C0.41,0.011 0.476,-0.051 0.501,-0.107L0.462,-0.123C0.441,-0.082 0.391,-0.029 0.303,-0.029C0.179,-0.029 0.104,-0.129 0.103,-0.263L0.519,-0.263L0.519,-0.29C0.519,-0.452 0.414,-0.554 0.292,-0.554C0.157,-0.554 0.06,-0.433 0.06,-0.27C0.06,-0.108 0.154,0.011 0.303,0.011ZM0.103,-0.303C0.112,-0.422 0.189,-0.513 0.292,-0.513C0.396,-0.513 0.475,-0.421 0.475,-0.303L0.103,-0.303Z" style="fill:rgb(191,191,191);fill-rule:nonzero;"/>
            </g>
            <g transform="matrix(48.9469,0,0,48.9469,321.062,76.6434)">
                <path d="M0.09,-0L0.133,-0L0.133,-0.359C0.133,-0.447 0.199,-0.511 0.29,-0.511C0.301,-0.511 0.309,-0.51 0.314,-0.509L0.314,-0.553C0.308,-0.553 0.3,-0.553 0.292,-0.553C0.22,-0.553 0.159,-0.516 0.136,-0.46L0.132,-0.46L0.132,-0.545L0.09,-0.545L0.09,-0Z" style="fill:rgb(191,191,191);fill-rule:nonzero;"/>
            </g>
            <g transform="matrix(48.9469,0,0,48.9469,337.749,76.6434)">
                <path d="M0.436,-0.428C0.41,-0.508 0.353,-0.554 0.26,-0.554C0.156,-0.554 0.081,-0.493 0.081,-0.405C0.081,-0.335 0.125,-0.286 0.214,-0.264L0.301,-0.243C0.366,-0.227 0.399,-0.191 0.399,-0.141C0.399,-0.075 0.339,-0.028 0.25,-0.028C0.169,-0.028 0.119,-0.066 0.104,-0.137L0.062,-0.127C0.081,-0.038 0.149,0.011 0.25,0.011C0.364,0.011 0.443,-0.052 0.443,-0.142C0.443,-0.213 0.399,-0.261 0.313,-0.283L0.229,-0.304C0.158,-0.321 0.124,-0.355 0.124,-0.407C0.124,-0.471 0.18,-0.514 0.26,-0.514C0.335,-0.514 0.376,-0.477 0.396,-0.417L0.436,-0.428Z" style="fill:rgb(191,191,191);fill-rule:nonzero;"/>
            </g>
            <g transform="matrix(48.9469,0,0,48.9469,362.361,76.6434)">
                <path d="M0.092,-0L0.135,-0L0.135,-0.545L0.092,-0.545L0.092,-0ZM0.114,-0.642C0.133,-0.642 0.148,-0.657 0.148,-0.676C0.148,-0.695 0.133,-0.71 0.114,-0.71C0.094,-0.71 0.078,-0.695 0.078,-0.676C0.078,-0.657 0.094,-0.642 0.114,-0.642Z" style="fill:rgb(191,191,191);fill-rule:nonzero;"/>
            </g>
            <g transform="matrix(48.9469,0,0,48.9469,373.468,76.6434)">
                <path d="M0.293,0.011C0.428,0.011 0.526,-0.107 0.526,-0.271C0.526,-0.435 0.427,-0.554 0.293,-0.554C0.158,-0.554 0.06,-0.435 0.06,-0.271C0.06,-0.107 0.158,0.011 0.293,0.011ZM0.293,-0.029C0.178,-0.029 0.103,-0.136 0.103,-0.271C0.103,-0.406 0.179,-0.513 0.293,-0.513C0.407,-0.513 0.483,-0.406 0.483,-0.271C0.483,-0.136 0.407,-0.029 0.293,-0.029Z" style="fill:rgb(191,191,191);fill-rule:nonzero;"/>
            </g>
            <g transform="matrix(48.9469,0,0,48.9469,402.113,76.6434)">
                <path d="M0.133,-0.354C0.133,-0.449 0.199,-0.512 0.29,-0.512C0.381,-0.512 0.441,-0.451 0.441,-0.358L0.441,-0L0.484,-0L0.484,-0.36C0.484,-0.479 0.408,-0.553 0.298,-0.553C0.221,-0.553 0.162,-0.516 0.136,-0.459L0.132,-0.459L0.132,-0.545L0.09,-0.545L0.09,-0L0.133,-0L0.133,-0.354Z" style="fill:rgb(191,191,191);fill-rule:nonzero;"/>
            </g>
            <g transform="matrix(48.9469,0,0,48.9469,443.968,76.6434)">
                <path d="M0.28,-0.727L0.23,-0.727L0.068,-0.62L0.068,-0.572L0.231,-0.68L0.235,-0.68L0.235,-0L0.28,-0L0.28,-0.727Z" style="fill:rgb(191,191,191);fill-rule:nonzero;"/>
            </g>
            <g transform="matrix(48.9469,0,0,48.9469,462.758,76.6434)">
                <path d="M0.13,0.005C0.151,0.005 0.169,-0.012 0.169,-0.034C0.169,-0.055 0.151,-0.072 0.13,-0.072C0.109,-0.072 0.092,-0.055 0.092,-0.034C0.092,-0.012 0.109,0.005 0.13,0.005Z" style="fill:rgb(191,191,191);fill-rule:nonzero;"/>
            </g>
            <g transform="matrix(48.9469,0,0,48.9469,473.778,76.6434)">
                <path d="M0.301,0.01C0.447,0.01 0.534,-0.13 0.534,-0.364C0.534,-0.597 0.446,-0.737 0.301,-0.737C0.156,-0.737 0.068,-0.597 0.068,-0.364C0.068,-0.13 0.155,0.01 0.301,0.01ZM0.301,-0.031C0.183,-0.031 0.112,-0.155 0.112,-0.364C0.112,-0.572 0.184,-0.696 0.301,-0.696C0.419,-0.696 0.49,-0.572 0.49,-0.364C0.49,-0.155 0.419,-0.031 0.301,-0.031Z" style="fill:rgb(191,191,191);fill-rule:nonzero;"/>
            </g>
        </g>
    </g>
    <g id="Header" transform="matrix(1,0,0,1,-0.25,0)">
        <g id="Header-Background" serif:id="Header Background" transform="matrix(1.00071,0,0,1.00073,0,0)">
            <rect x="0" y="0" width="350" height="63.953" style="fill:rgb(13,13,13);"/>
        </g>
        <g transform="matrix(1,0,0,1,-22.9458,-15.1212)">
            <g transform="matrix(20.8333,0,0,20.8333,64.0079,54.7918)">
                <path d="M0.477,-0.536L0.582,-0.536C0.579,-0.653 0.476,-0.737 0.328,-0.737C0.183,-0.737 0.071,-0.654 0.071,-0.528C0.071,-0.427 0.143,-0.368 0.26,-0.336L0.346,-0.313C0.424,-0.292 0.484,-0.267 0.484,-0.202C0.484,-0.131 0.416,-0.084 0.322,-0.084C0.238,-0.084 0.168,-0.122 0.161,-0.201L0.051,-0.201C0.058,-0.069 0.16,0.012 0.323,0.012C0.494,0.012 0.592,-0.078 0.592,-0.201C0.592,-0.332 0.475,-0.383 0.383,-0.406L0.312,-0.424C0.255,-0.439 0.18,-0.465 0.18,-0.535C0.18,-0.597 0.237,-0.642 0.326,-0.642C0.409,-0.642 0.469,-0.603 0.477,-0.536Z" style="fill:rgb(216,219,227);fill-rule:nonzero;"/>
            </g>
            <g transform="matrix(20.8333,0,0,20.8333,76.7884,54.7918)">
                <path d="M0.08,-0L0.19,-0L0.19,-0.256L0.339,-0.256C0.507,-0.256 0.591,-0.358 0.591,-0.492C0.591,-0.626 0.508,-0.727 0.339,-0.727L0.08,-0.727L0.08,-0ZM0.19,-0.349L0.19,-0.633L0.327,-0.633C0.436,-0.633 0.48,-0.574 0.48,-0.492C0.48,-0.409 0.436,-0.349 0.329,-0.349L0.19,-0.349Z" style="fill:rgb(216,219,227);fill-rule:nonzero;"/>
            </g>
            <g transform="matrix(20.8333,0,0,20.8333,89.2719,54.7918)">
                <rect x="0.08" y="-0.727" width="0.11" height="0.727" style="fill:rgb(216,219,227);fill-rule:nonzero;"/>
            </g>
            <g transform="matrix(20.8333,0,0,20.8333,94.6788,54.7918)">
                <path d="M0.044,-0.633L0.271,-0.633L0.271,-0L0.38,-0L0.38,-0.633L0.607,-0.633L0.607,-0.727L0.044,-0.727L0.044,-0.633Z" style="fill:rgb(216,219,227);fill-rule:nonzero;"/>
            </g>
            <g transform="matrix(20.8333,0,0,20.8333,108.031,54.7918)">
                <path d="M0.08,-0L0.54,-0L0.54,-0.094L0.19,-0.094L0.19,-0.317L0.512,-0.317L0.512,-0.411L0.19,-0.411L0.19,-0.633L0.536,-0.633L0.536,-0.727L0.08,-0.727L0.08,-0Z" style="fill:rgb(216,219,227);fill-rule:nonzero;"/>
            </g>
            <g transform="matrix(20.8333,0,0,20.8333,126.113,54.7918)">
                <path d="M0.08,-0.727L0.08,-0L0.184,-0L0.184,-0.527L0.191,-0.527L0.406,-0.001L0.492,-0.001L0.707,-0.526L0.713,-0.526L0.713,-0L0.818,-0L0.818,-0.727L0.685,-0.727L0.453,-0.162L0.445,-0.162L0.213,-0.727L0.08,-0.727Z" style="fill:rgb(216,219,227);fill-rule:nonzero;"/>
            </g>
            <g transform="matrix(20.8333,0,0,20.8333,144.19,54.7918)">
                <rect x="0.08" y="-0.727" width="0.11" height="0.727" style="fill:rgb(216,219,227);fill-rule:nonzero;"/>
            </g>
            <g transform="matrix(20.8333,0,0,20.8333,149.18,54.7918)">
                <path d="M0.315,-0C0.537,-0 0.665,-0.137 0.665,-0.365C0.665,-0.591 0.537,-0.727 0.323,-0.727L0.08,-0.727L0.08,-0L0.315,-0ZM0.19,-0.096L0.19,-0.631L0.316,-0.631C0.475,-0.631 0.557,-0.536 0.557,-0.365C0.557,-0.192 0.475,-0.096 0.309,-0.096L0.19,-0.096Z" style="fill:rgb(216,219,227);fill-rule:nonzero;"/>
            </g>
            <g transform="matrix(20.8333,0,0,20.8333,163.38,54.7918)">
                <rect x="0.08" y="-0.727" width="0.11" height="0.727" style="fill:rgb(216,219,227);fill-rule:nonzero;"/>
            </g>
        </g>
        <g id="Logo" transform="matrix(0.0118481,0,0,0.0118481,25.3911,30.7841)">
            <g transform="matrix(1,0,0,1,-903.536,-1019.69)">
                <path d="M955,474.518C949.89,475.608 945.019,478.01 941,481.329C937.647,484.098 934.501,487.359 932.108,491C918.959,511.01 932.577,534.938 940.576,554C954.396,586.935 967.755,620.065 981.576,653C987.708,667.613 992.797,683.02 1000.31,697C1012.32,719.354 1028.98,738.506 1050,752.806C1067.62,764.792 1087.96,773.2 1109,776.714C1138.93,781.714 1170.73,779 1201,779L1561,779C1574.98,779 1592.69,781.884 1606,777.304C1626.17,770.364 1642.66,751.654 1644.83,730C1647.02,708.117 1639.39,686.196 1635,665C1626.29,622.904 1616.15,581.141 1607.6,539C1602.63,514.493 1596.27,491.507 1572,479.37C1554.93,470.835 1533.5,474 1515,474L972,474C966.46,474 960.446,473.356 955,474.518Z" style="fill:rgb(51,204,204);fill-rule:nonzero;"/>
            </g>
            <g transform="matrix(1,0,0,1,-903.536,-1019.69)">
                <path d="M352,811.464C346.883,812.387 342.234,814.44 338.004,817.44C334.967,819.593 332.32,822.064 330.043,825.015C311.773,848.696 331.419,878.805 340.989,902C352.822,930.679 364.571,959.393 376.576,988C383.434,1004.34 389.208,1021.49 397.862,1037C414.719,1067.22 441.53,1092.27 474,1104.94C509.094,1118.63 546.027,1116 583,1116L1579,1116C1591.31,1116 1602.7,1116.82 1614,1111.02C1637.2,1099.1 1646.05,1075.73 1644.96,1051C1644.48,1040.04 1640.77,1028.69 1638.42,1018C1634.03,997.994 1629.85,977.957 1625.24,958C1620.18,936.108 1615.56,914.017 1611,892C1608.13,878.107 1605.88,863.496 1601.48,850C1594.93,829.934 1576.76,814.682 1556,811.439C1547.58,810.123 1538.51,811 1530,811L372,811C365.461,811 358.456,810.301 352,811.464Z" style="fill:rgb(51,204,204);fill-rule:nonzero;"/>
            </g>
            <g transform="matrix(1,0,0,1,-903.536,-1019.69)">
                <path d="M955,1148.53C950.445,1149.56 945.749,1151.85 942,1154.61C938.824,1156.95 935.932,1159.88 933.529,1163C918.384,1182.68 931.887,1207.6 940.15,1227C954.287,1260.19 967.616,1293.73 981.576,1327C987.708,1341.61 992.797,1357.02 1000.31,1371C1012.15,1393.04 1028.42,1411.84 1049,1426.11C1066.5,1438.26 1086.96,1447.02 1108,1450.68C1138.17,1455.93 1170.47,1453 1201,1453L1562,1453C1577.09,1453 1594.67,1455.57 1609,1450.3C1628.27,1443.22 1644.04,1422.74 1644.96,1402C1645.91,1380.52 1639.32,1359.86 1635,1339C1626.49,1297.9 1616.94,1257.06 1608.21,1216C1602.82,1190.65 1597.59,1165.99 1572,1153.37C1554.83,1144.91 1533.55,1148 1515,1148L972,1148C966.484,1148 960.41,1147.3 955,1148.53Z" style="fill:rgb(51,204,204);fill-rule:nonzero;"/>
            </g>
            <g transform="matrix(1,0,0,1,-903.536,-1019.69)">
                <path d="M1269,1485.52C1246.72,1490.27 1235.93,1514.27 1242.04,1535C1245.26,1545.89 1250.7,1556.56 1255.15,1567C1261.93,1582.92 1268.39,1599 1274.99,1615C1288.27,1647.19 1299.7,1681.36 1316.31,1712C1322.6,1723.6 1330.81,1734.56 1340.01,1744C1361.25,1765.76 1389.93,1781.93 1420,1787.38C1453.02,1793.38 1488.52,1790 1522,1790L1575,1790C1583.93,1790 1594.3,1791.44 1603,1789.24C1624.7,1783.76 1642.59,1763.41 1644.83,1741C1646.94,1719.9 1639.91,1698.41 1635.42,1678C1627.3,1641 1619.09,1604.05 1611.21,1567C1606.51,1544.88 1604.52,1518.93 1587.96,1502.01C1565.8,1479.37 1532.81,1485 1504,1485L1295,1485C1286.65,1485 1277.19,1483.77 1269,1485.52Z" style="fill:rgb(51,204,204);fill-rule:nonzero;"/>
            </g>
        </g>
    </g>
</svg>
